<?xml version="1.0" encoding="UTF-8" standalone="no"?><svg xmlns="http://www.w3.org/2000/svg" xmlns:xlink="http://www.w3.org/1999/xlink" contentScriptType="application/ecmascript" contentStyleType="text/css" height="978.125px" preserveAspectRatio="none" style="width:1410px;height:978px;" version="1.1" viewBox="0 0 1410 978" width="1410.9375px" zoomAndPan="magnify"><defs/><g><line style="stroke: #A80036; stroke-width: 1.5625; stroke-dasharray: 5.0,5.0;" x1="42.1875" x2="42.1875" y1="128.5889" y2="842.6392"/><line style="stroke: #A80036; stroke-width: 1.5625; stroke-dasharray: 5.0,5.0;" x1="329.6875" x2="329.6875" y1="128.5889" y2="842.6392"/><line style="stroke: #A80036; stroke-width: 1.5625; stroke-dasharray: 5.0,5.0;" x1="710.9375" x2="710.9375" y1="128.5889" y2="842.6392"/><line style="stroke: #A80036; stroke-width: 1.5625; stroke-dasharray: 5.0,5.0;" x1="985.9375" x2="985.9375" y1="128.5889" y2="842.6392"/><line style="stroke: #A80036; stroke-width: 1.5625; stroke-dasharray: 5.0,5.0;" x1="1321.875" x2="1321.875" y1="128.5889" y2="842.6392"/><text fill="#000000" font-family="sans-serif" font-size="21.875" lengthAdjust="spacingAndGlyphs" textLength="50" x="12.5" y="123.4299">PMO</text><ellipse cx="42.1875" cy="20.3125" fill="#FEFECE" rx="12.5" ry="12.5" style="stroke: #A80036; stroke-width: 3.125;"/><path d="M42.1875,32.8125 L42.1875,75 M21.875,45.3125 L62.5,45.3125 M42.1875,75 L21.875,98.4375 M42.1875,75 L62.5,98.4375 " fill="none" style="stroke: #A80036; stroke-width: 3.125;"/><text fill="#000000" font-family="sans-serif" font-size="21.875" lengthAdjust="spacingAndGlyphs" textLength="50" x="12.5" y="861.3815">PMO</text><ellipse cx="42.1875" cy="882.1655" fill="#FEFECE" rx="12.5" ry="12.5" style="stroke: #A80036; stroke-width: 3.125;"/><path d="M42.1875,894.6655 L42.1875,936.853 M21.875,907.1655 L62.5,907.1655 M42.1875,936.853 L21.875,960.2905 M42.1875,936.853 L62.5,960.2905 " fill="none" style="stroke: #A80036; stroke-width: 3.125;"/><rect fill="#FEFECE" height="47.3389" style="stroke: #A80036; stroke-width: 2.34375;" width="143.75" x="257.8125" y="79.6875"/><text fill="#000000" font-family="sans-serif" font-size="21.875" lengthAdjust="spacingAndGlyphs" textLength="121.875" x="268.75" y="110.9299">Finanzas UI</text><rect fill="#FEFECE" height="47.3389" style="stroke: #A80036; stroke-width: 2.34375;" width="143.75" x="257.8125" y="841.0767"/><text fill="#000000" font-family="sans-serif" font-size="21.875" lengthAdjust="spacingAndGlyphs" textLength="121.875" x="268.75" y="872.319">Finanzas UI</text><rect fill="#FEFECE" height="47.3389" style="stroke: #A80036; stroke-width: 2.34375;" width="153.125" x="634.375" y="79.6875"/><text fill="#000000" font-family="sans-serif" font-size="21.875" lengthAdjust="spacingAndGlyphs" textLength="131.25" x="645.3125" y="110.9299">API Gateway</text><rect fill="#FEFECE" height="47.3389" style="stroke: #A80036; stroke-width: 2.34375;" width="153.125" x="634.375" y="841.0767"/><text fill="#000000" font-family="sans-serif" font-size="21.875" lengthAdjust="spacingAndGlyphs" textLength="131.25" x="645.3125" y="872.319">API Gateway</text><rect fill="#FEFECE" height="47.3389" style="stroke: #A80036; stroke-width: 2.34375;" width="200" x="885.9375" y="79.6875"/><text fill="#000000" font-family="sans-serif" font-size="21.875" lengthAdjust="spacingAndGlyphs" textLength="178.125" x="896.875" y="110.9299">Lambda Projects</text><rect fill="#FEFECE" height="47.3389" style="stroke: #A80036; stroke-width: 2.34375;" width="200" x="885.9375" y="841.0767"/><text fill="#000000" font-family="sans-serif" font-size="21.875" lengthAdjust="spacingAndGlyphs" textLength="178.125" x="896.875" y="872.319">Lambda Projects</text><rect fill="#FEFECE" height="47.3389" style="stroke: #A80036; stroke-width: 2.34375;" width="143.75" x="1250" y="79.6875"/><text fill="#000000" font-family="sans-serif" font-size="21.875" lengthAdjust="spacingAndGlyphs" textLength="121.875" x="1260.9375" y="110.9299">DynamoDB</text><rect fill="#FEFECE" height="47.3389" style="stroke: #A80036; stroke-width: 2.34375;" width="143.75" x="1250" y="841.0767"/><text fill="#000000" font-family="sans-serif" font-size="21.875" lengthAdjust="spacingAndGlyphs" textLength="121.875" x="1260.9375" y="872.319">DynamoDB</text><polygon fill="#A80036" points="310.9375,170.9839,326.5625,177.2339,310.9375,183.4839,317.1875,177.2339" style="stroke: #A80036; stroke-width: 1.5625;"/><line style="stroke: #A80036; stroke-width: 1.5625;" x1="42.1875" x2="320.3125" y1="177.2339" y2="177.2339"/><text fill="#000000" font-family="sans-serif" font-size="20.3125" lengthAdjust="spacingAndGlyphs" textLength="250" x="53.125" y="169.3184">Crear proyecto / baseline</text><polygon fill="#A80036" points="692.1875,216.5039,707.8125,222.7539,692.1875,229.0039,698.4375,222.7539" style="stroke: #A80036; stroke-width: 1.5625;"/><line style="stroke: #A80036; stroke-width: 1.5625;" x1="329.6875" x2="701.5625" y1="222.7539" y2="222.7539"/><text fill="#000000" font-family="sans-serif" font-size="20.3125" lengthAdjust="spacingAndGlyphs" textLength="145.3125" x="340.625" y="214.8384">POST /projects</text><polygon fill="#A80036" points="967.1875,262.0239,982.8125,268.2739,967.1875,274.5239,973.4375,268.2739" style="stroke: #A80036; stroke-width: 1.5625;"/><line style="stroke: #A80036; stroke-width: 1.5625;" x1="710.9375" x2="976.5625" y1="268.2739" y2="268.2739"/><text fill="#000000" font-family="sans-serif" font-size="20.3125" lengthAdjust="spacingAndGlyphs" textLength="212.5" x="721.875" y="260.3584">validar JWT + payload</text><polygon fill="#A80036" points="1303.125,307.5439,1318.75,313.7939,1303.125,320.0439,1309.375,313.7939" style="stroke: #A80036; stroke-width: 1.5625;"/><line style="stroke: #A80036; stroke-width: 1.5625;" x1="985.9375" x2="1312.5" y1="313.7939" y2="313.7939"/><text fill="#000000" font-family="sans-serif" font-size="20.3125" lengthAdjust="spacingAndGlyphs" textLength="298.4375" x="996.875" y="305.8784">Guardar PROJECT + BASELINE</text><polygon fill="#A80036" points="1003.125,353.064,987.5,359.314,1003.125,365.564,996.875,359.314" style="stroke: #A80036; stroke-width: 1.5625;"/><line style="stroke: #A80036; stroke-width: 1.5625; stroke-dasharray: 2.0,2.0;" x1="993.75" x2="1320.3125" y1="359.314" y2="359.314"/><text fill="#000000" font-family="sans-serif" font-size="20.3125" lengthAdjust="spacingAndGlyphs" textLength="28.125" x="1012.5" y="351.3985">OK</text><polygon fill="#A80036" points="728.125,398.584,712.5,404.834,728.125,411.084,721.875,404.834" style="stroke: #A80036; stroke-width: 1.5625;"/><line style="stroke: #A80036; stroke-width: 1.5625; stroke-dasharray: 2.0,2.0;" x1="718.75" x2="984.375" y1="404.834" y2="404.834"/><text fill="#000000" font-family="sans-serif" font-size="20.3125" lengthAdjust="spacingAndGlyphs" textLength="153.125" x="737.5" y="396.9185">201 + projectId</text><polygon fill="#A80036" points="346.875,444.104,331.25,450.354,346.875,456.604,340.625,450.354" style="stroke: #A80036; stroke-width: 1.5625;"/><line style="stroke: #A80036; stroke-width: 1.5625; stroke-dasharray: 2.0,2.0;" x1="337.5" x2="709.375" y1="450.354" y2="450.354"/><text fill="#000000" font-family="sans-serif" font-size="20.3125" lengthAdjust="spacingAndGlyphs" textLength="85.9375" x="356.25" y="442.4385">projectId</text><polygon fill="#A80036" points="310.9375,489.624,326.5625,495.874,310.9375,502.124,317.1875,495.874" style="stroke: #A80036; stroke-width: 1.5625;"/><line style="stroke: #A80036; stroke-width: 1.5625;" x1="42.1875" x2="320.3125" y1="495.874" y2="495.874"/><text fill="#000000" font-family="sans-serif" font-size="20.3125" lengthAdjust="spacingAndGlyphs" textLength="162.5" x="53.125" y="487.9585">Generar handoff</text><polygon fill="#A80036" points="692.1875,535.144,707.8125,541.394,692.1875,547.644,698.4375,541.394" style="stroke: #A80036; stroke-width: 1.5625;"/><line style="stroke: #A80036; stroke-width: 1.5625;" x1="329.6875" x2="701.5625" y1="541.394" y2="541.394"/><text fill="#000000" font-family="sans-serif" font-size="20.3125" lengthAdjust="spacingAndGlyphs" textLength="343.75" x="340.625" y="533.4785">POST /projects/{projectId}/handoff</text><polygon fill="#A80036" points="967.1875,580.6641,982.8125,586.9141,967.1875,593.1641,973.4375,586.9141" style="stroke: #A80036; stroke-width: 1.5625;"/><line style="stroke: #A80036; stroke-width: 1.5625;" x1="710.9375" x2="976.5625" y1="586.9141" y2="586.9141"/><text fill="#000000" font-family="sans-serif" font-size="20.3125" lengthAdjust="spacingAndGlyphs" textLength="237.5" x="721.875" y="578.9986">validar baseline cerrada</text><polygon fill="#A80036" points="1303.125,626.1841,1318.75,632.4341,1303.125,638.6841,1309.375,632.4341" style="stroke: #A80036; stroke-width: 1.5625;"/><line style="stroke: #A80036; stroke-width: 1.5625;" x1="985.9375" x2="1312.5" y1="632.4341" y2="632.4341"/><text fill="#000000" font-family="sans-serif" font-size="20.3125" lengthAdjust="spacingAndGlyphs" textLength="234.375" x="996.875" y="624.5186">Leer rubros y line items</text><polygon fill="#A80036" points="1303.125,671.7041,1318.75,677.9541,1303.125,684.2041,1309.375,677.9541" style="stroke: #A80036; stroke-width: 1.5625;"/><line style="stroke: #A80036; stroke-width: 1.5625;" x1="985.9375" x2="1312.5" y1="677.9541" y2="677.9541"/><text fill="#000000" font-family="sans-serif" font-size="20.3125" lengthAdjust="spacingAndGlyphs" textLength="193.75" x="996.875" y="670.0386">Registrar HANDOFF</text><polygon fill="#A80036" points="1003.125,717.2241,987.5,723.4741,1003.125,729.7241,996.875,723.4741" style="stroke: #A80036; stroke-width: 1.5625;"/><line style="stroke: #A80036; stroke-width: 1.5625; stroke-dasharray: 2.0,2.0;" x1="993.75" x2="1320.3125" y1="723.4741" y2="723.4741"/><text fill="#000000" font-family="sans-serif" font-size="20.3125" lengthAdjust="spacingAndGlyphs" textLength="28.125" x="1012.5" y="715.5586">OK</text><polygon fill="#A80036" points="728.125,762.7441,712.5,768.9941,728.125,775.2441,721.875,768.9941" style="stroke: #A80036; stroke-width: 1.5625;"/><line style="stroke: #A80036; stroke-width: 1.5625; stroke-dasharray: 2.0,2.0;" x1="718.75" x2="984.375" y1="768.9941" y2="768.9941"/><text fill="#000000" font-family="sans-serif" font-size="20.3125" lengthAdjust="spacingAndGlyphs" textLength="159.375" x="737.5" y="761.0786">200 + handoffId</text><polygon fill="#A80036" points="346.875,808.2642,331.25,814.5142,346.875,820.7642,340.625,814.5142" style="stroke: #A80036; stroke-width: 1.5625;"/><line style="stroke: #A80036; stroke-width: 1.5625; stroke-dasharray: 2.0,2.0;" x1="337.5" x2="709.375" y1="814.5142" y2="814.5142"/><text fill="#000000" font-family="sans-serif" font-size="20.3125" lengthAdjust="spacingAndGlyphs" textLength="217.1875" x="356.25" y="806.5987">handoffId + summary</text><!--MD5=[3f1adda93431ae92e578fdaa31aaae5e]
@startuml
skinparam backgroundColor #ffffff
skinparam shadowing false
skinparam dpi 150
actor PMO
participant "Finanzas UI" as UI
participant "API Gateway" as APIGW
participant "Lambda Projects" as LProjects
participant "DynamoDB" as Dynamo

PMO -> UI : Crear proyecto / baseline
UI -> APIGW : POST /projects
APIGW -> LProjects : validar JWT + payload
LProjects -> Dynamo : Guardar PROJECT + BASELINE
Dynamo - -> LProjects : OK
LProjects - -> APIGW : 201 + projectId
APIGW - -> UI : projectId

PMO -> UI : Generar handoff
UI -> APIGW : POST /projects/{projectId}/handoff
APIGW -> LProjects : validar baseline cerrada
LProjects -> Dynamo : Leer rubros y line items
LProjects -> Dynamo : Registrar HANDOFF
Dynamo - -> LProjects : OK
LProjects - -> APIGW : 200 + handoffId
APIGW - -> UI : handoffId + summary
@enduml

PlantUML version 1.2020.02(Sun Mar 01 10:22:07 UTC 2020)
(GPL source distribution)
Java Runtime: OpenJDK Runtime Environment
JVM: OpenJDK 64-Bit Server VM
Java Version: 21.0.2+13-58
Operating System: Linux
Default Encoding: UTF-8
Language: en
Country: null
--></g></svg>