<?xml version="1.0" encoding="UTF-8" standalone="no"?><svg xmlns="http://www.w3.org/2000/svg" xmlns:xlink="http://www.w3.org/1999/xlink" contentScriptType="application/ecmascript" contentStyleType="text/css" height="942.1875px" preserveAspectRatio="none" style="width:1942px;height:942px;" version="1.1" viewBox="0 0 1942 942" width="1942.1875px" zoomAndPan="magnify"><defs/><g><!--MD5=[128f0757cf0ea77f14e95a88885fd9f7]
entity Usuario--><ellipse cx="1067.1875" cy="27.3438" fill="#FEFECE" rx="12.5" ry="12.5" style="stroke: #A80036; stroke-width: 2.34375;"/><path d="M1067.1875,39.8438 L1067.1875,82.0313 M1046.875,52.3438 L1087.5,52.3438 M1067.1875,82.0313 L1046.875,105.4688 M1067.1875,82.0313 L1087.5,105.4688 " fill="none" style="stroke: #A80036; stroke-width: 2.34375;"/><text fill="#000000" font-family="sans-serif" font-size="21.875" lengthAdjust="spacingAndGlyphs" textLength="81.25" x="1026.5625" y="129.6799">Usuario</text><!--MD5=[c42ed81cef7fdd2e33758127945b9a5b]
entity UI--><rect fill="#FEFECE" height="82.1777" style="stroke: #000000; stroke-width: 2.34375;" width="209.375" x="962.5" y="254.6875"/><text fill="#000000" font-family="sans-serif" font-size="21.875" lengthAdjust="spacingAndGlyphs" textLength="121.875" x="978.125" y="290.6174">Finanzas UI</text><text fill="#000000" font-family="sans-serif" font-size="21.875" lengthAdjust="spacingAndGlyphs" textLength="178.125" x="978.125" y="316.0812">React + Cognito</text><!--MD5=[59a573bb1651b69eacba1b1441c8ab49]
entity APIGW--><rect fill="#FEFECE" height="82.1777" style="stroke: #000000; stroke-width: 2.34375;" width="193.75" x="970.3125" y="457.8125"/><text fill="#000000" font-family="sans-serif" font-size="21.875" lengthAdjust="spacingAndGlyphs" textLength="131.25" x="985.9375" y="493.7424">API Gateway</text><text fill="#000000" font-family="sans-serif" font-size="21.875" lengthAdjust="spacingAndGlyphs" textLength="162.5" x="985.9375" y="519.2062">finanzas-sd-api</text><!--MD5=[2689bc003d2995537f1df170545d3ef9]
entity LProjects--><rect fill="#FEFECE" height="56.7139" style="stroke: #000000; stroke-width: 2.34375;" width="209.375" x="9.375" y="660.9375"/><text fill="#000000" font-family="sans-serif" font-size="21.875" lengthAdjust="spacingAndGlyphs" textLength="178.125" x="25" y="696.8674">Lambda Projects</text><!--MD5=[3cc7d0de7427adf8d4e7ea5b59e49d2a]
entity LRubros--><rect fill="#FEFECE" height="56.7139" style="stroke: #000000; stroke-width: 2.34375;" width="200" x="356.25" y="660.9375"/><text fill="#000000" font-family="sans-serif" font-size="21.875" lengthAdjust="spacingAndGlyphs" textLength="168.75" x="371.875" y="696.8674">Lambda Rubros</text><!--MD5=[e6872b7519b3706910ed83934f475cee]
entity LAlloc--><rect fill="#FEFECE" height="56.7139" style="stroke: #000000; stroke-width: 2.34375;" width="237.5" x="690.625" y="660.9375"/><text fill="#000000" font-family="sans-serif" font-size="21.875" lengthAdjust="spacingAndGlyphs" textLength="206.25" x="706.25" y="696.8674">Lambda Allocations</text><!--MD5=[6577fe1df34f029608345091457b9cc3]
entity LInv--><rect fill="#FEFECE" height="56.7139" style="stroke: #000000; stroke-width: 2.34375;" width="209.375" x="1039.0625" y="660.9375"/><text fill="#000000" font-family="sans-serif" font-size="21.875" lengthAdjust="spacingAndGlyphs" textLength="178.125" x="1054.6875" y="696.8674">Lambda Invoices</text><!--MD5=[3d7c056da4eec4fcf897b9e00f9802cc]
entity LUp--><rect fill="#FEFECE" height="56.7139" style="stroke: #000000; stroke-width: 2.34375;" width="209.375" x="1414.0625" y="660.9375"/><text fill="#000000" font-family="sans-serif" font-size="21.875" lengthAdjust="spacingAndGlyphs" textLength="178.125" x="1429.6875" y="696.8674">Lambda Uploads</text><!--MD5=[0c14a8cc24fd19969db8466adce38cde]
entity LHealth--><rect fill="#FEFECE" height="56.7139" style="stroke: #000000; stroke-width: 2.34375;" width="190.625" x="1734.375" y="660.9375"/><text fill="#000000" font-family="sans-serif" font-size="21.875" lengthAdjust="spacingAndGlyphs" textLength="159.375" x="1750" y="696.8674">Lambda Health</text><!--MD5=[f2c2d481bcb41bdf4fe88476e369f019]
entity Dynamo--><polygon fill="#FEFECE" points="717.1875,860.9375,732.8125,845.3125,901.5625,845.3125,901.5625,902.0264,885.9375,917.6514,717.1875,917.6514,717.1875,860.9375" style="stroke: #000000; stroke-width: 2.34375;"/><line style="stroke: #000000; stroke-width: 2.34375;" x1="885.9375" x2="900" y1="860.9375" y2="846.875"/><line style="stroke: #000000; stroke-width: 2.34375;" x1="717.1875" x2="885.9375" y1="860.9375" y2="860.9375"/><line style="stroke: #000000; stroke-width: 2.34375;" x1="885.9375" x2="885.9375" y1="860.9375" y2="917.6514"/><text fill="#000000" font-family="sans-serif" font-size="21.875" lengthAdjust="spacingAndGlyphs" textLength="121.875" x="740.625" y="896.8674">DynamoDB</text><!--MD5=[6c7192638421eaf134d201765ac5db29]
entity S3--><polygon fill="#FEFECE" points="1481.25,837.5,1553.125,837.5,1564.0625,870.3125,1556.25,870.3125,1556.25,924.3652,1481.25,924.3652,1481.25,837.5" style="stroke: #000000; stroke-width: 2.34375;"/><line style="stroke: #000000; stroke-width: 2.34375;" x1="1481.25" x2="1564.0625" y1="870.3125" y2="870.3125"/><text fill="#000000" font-family="sans-serif" font-size="21.875" lengthAdjust="spacingAndGlyphs" textLength="28.125" x="1496.875" y="901.5549">S3</text><!--MD5=[8717350c56d2e858faf0ab85b6c09eba]
link Usuario to UI--><path d="M1067.1875,134.4062 C1067.1875,169.5313 1067.1875,213.4219 1067.1875,246.375 " fill="none" id="Usuario-&gt;UI" style="stroke: #A80036; stroke-width: 1.5625;"/><polygon fill="#A80036" points="1067.1875,254.5,1073.4375,240.4375,1067.1875,246.6875,1060.9375,240.4375,1067.1875,254.5" style="stroke: #A80036; stroke-width: 1.5625;"/><text fill="#000000" font-family="sans-serif" font-size="20.3125" lengthAdjust="spacingAndGlyphs" textLength="115.625" x="1068.75" y="201.667">JWT Cognito</text><!--MD5=[875d438be56fb961f68c7e909671e489]
link UI to APIGW--><path d="M1067.1875,337.6563 C1067.1875,369.9375 1067.1875,415.4844 1067.1875,449.7344 " fill="none" id="UI-&gt;APIGW" style="stroke: #A80036; stroke-width: 1.5625;"/><polygon fill="#A80036" points="1067.1875,457.7344,1073.4375,443.6719,1067.1875,449.9219,1060.9375,443.6719,1067.1875,457.7344" style="stroke: #A80036; stroke-width: 1.5625;"/><text fill="#000000" font-family="sans-serif" font-size="20.3125" lengthAdjust="spacingAndGlyphs" textLength="157.8125" x="1068.75" y="404.792">HTTPS requests</text><!--MD5=[a03a83945a0b847ae60208705ed7ebba]
link APIGW to LProjects--><path d="M969.8906,502.25 C736.6875,506.7969 160.8438,524.3594 103.125,587.5 C87.2813,604.8438 91.0938,631.5625 98.2969,653.0156 " fill="none" id="APIGW-&gt;LProjects" style="stroke: #A80036; stroke-width: 1.5625;"/><polygon fill="#A80036" points="101.0781,660.6563,102.1311,645.3035,98.4011,653.3167,90.3878,649.5867,101.0781,660.6563" style="stroke: #A80036; stroke-width: 1.5625;"/><text fill="#000000" font-family="sans-serif" font-size="20.3125" lengthAdjust="spacingAndGlyphs" textLength="281.25" x="104.6875" y="607.917">/projects, /baseline, /handoff</text><!--MD5=[546882e97739da365c9776016105a4ed]
link APIGW to LRubros--><path d="M970.1094,506.5469 C795.4219,517.9219 442.8438,545.7969 406.25,587.5 C389.0781,607.0625 403.625,633.5781 421.375,654.3906 " fill="none" id="APIGW-&gt;LRubros" style="stroke: #A80036; stroke-width: 1.5625;"/><polygon fill="#A80036" points="426.9531,660.6563,422.2783,645.9946,421.7614,654.8183,412.9377,654.3014,426.9531,660.6563" style="stroke: #A80036; stroke-width: 1.5625;"/><text fill="#000000" font-family="sans-serif" font-size="20.3125" lengthAdjust="spacingAndGlyphs" textLength="367.1875" x="407.8125" y="607.917">/catalog/rubros, /projects/{id}/rubros</text><!--MD5=[41851185fcfd45edf93dddb64afb9e56]
link APIGW to LAlloc--><path d="M969.9375,504.7344 C910,512.7969 837.3906,534 798.4375,587.5 C784.7969,606.2344 788.2344,632.4219 794.7188,653.2969 " fill="none" id="APIGW-&gt;LAlloc" style="stroke: #A80036; stroke-width: 1.5625;"/><polygon fill="#A80036" points="797.2188,660.7188,798.6458,645.3962,794.7215,653.3161,786.8016,649.3918,797.2188,660.7188" style="stroke: #A80036; stroke-width: 1.5625;"/><text fill="#000000" font-family="sans-serif" font-size="20.3125" lengthAdjust="spacingAndGlyphs" textLength="450" x="800" y="607.917">/allocation-rules, /plan/forecast, /close-month</text><!--MD5=[6041efe321d80cc3ddd886b490a865d7]
link APIGW to LInv--><path d="M1164.3594,519.6563 C1202.1094,532.2344 1241.625,553.0938 1264.0625,587.5 C1282.2813,615.4219 1255.3594,639.5625 1222.3906,657.125 " fill="none" id="APIGW-&gt;LInv" style="stroke: #A80036; stroke-width: 1.5625;"/><polygon fill="#A80036" points="1215.2813,660.7813,1230.6452,659.9056,1222.2283,657.2072,1224.9267,648.7903,1215.2813,660.7813" style="stroke: #A80036; stroke-width: 1.5625;"/><text fill="#000000" font-family="sans-serif" font-size="20.3125" lengthAdjust="spacingAndGlyphs" textLength="235.9375" x="1270.3125" y="607.917">/invoices, /recon, /alerts</text><!--MD5=[74d4783ec29dcd232aa4877b20b7f6c9]
link APIGW to LUp--><path d="M1164.2344,505.3125 C1283.6406,513.1563 1476.0313,533.9531 1520.3125,587.5 C1534.9688,605.2188 1534.0469,631.3594 1529.7344,652.4844 " fill="none" id="APIGW-&gt;LUp" style="stroke: #A80036; stroke-width: 1.5625;"/><polygon fill="#A80036" points="1527.875,660.5938,1537.1376,648.3047,1529.6382,652.9828,1524.9601,645.4835,1527.875,660.5938" style="stroke: #A80036; stroke-width: 1.5625;"/><text fill="#000000" font-family="sans-serif" font-size="20.3125" lengthAdjust="spacingAndGlyphs" textLength="137.5" x="1532.8125" y="607.917">/uploads/docs</text><!--MD5=[d827134deffaab3d137c82fcdf297cbd]
link APIGW to LHealth--><path d="M1164.2031,500.7969 C1288.7656,503.8281 1509.6719,519.5 1684.375,587.5 C1725.2344,603.4063 1765.8438,632.7969 1793.7031,655.6094 " fill="none" id="APIGW-&gt;LHealth" style="stroke: #A80036; stroke-width: 1.5625;"/><polygon fill="#A80036" points="1799.7969,660.6719,1792.9899,646.8704,1793.7933,655.6726,1784.9911,656.4761,1799.7969,660.6719" style="stroke: #A80036; stroke-width: 1.5625;"/><text fill="#000000" font-family="sans-serif" font-size="20.3125" lengthAdjust="spacingAndGlyphs" textLength="68.75" x="1735.9375" y="607.917">/health</text><!--MD5=[ef4d3186466ff24ba244689a916d76c8]
link LProjects to Dynamo--><path d="M212.2031,717.3125 C343.7969,753.0938 576.1563,816.2656 708.9063,852.375 " fill="none" id="LProjects-&gt;Dynamo" style="stroke: #A80036; stroke-width: 1.5625;"/><polygon fill="#A80036" points="716.7188,854.5,704.7987,844.7671,709.182,852.4425,701.5067,856.8259,716.7188,854.5" style="stroke: #A80036; stroke-width: 1.5625;"/><!--MD5=[d3735ff031895e26db3ebd981fbf3a75]
link LRubros to Dynamo--><path d="M506.0937,717.3125 C566.5625,749.6875 668.9531,804.5 737.8281,841.3906 " fill="none" id="LRubros-&gt;Dynamo" style="stroke: #A80036; stroke-width: 1.5625;"/><polygon fill="#A80036" points="744.8125,845.125,735.3823,832.9641,737.9302,841.4277,729.4666,843.9757,744.8125,845.125" style="stroke: #A80036; stroke-width: 1.5625;"/><!--MD5=[558afdd518a960d9eba67e39841dd776]
link LAlloc to Dynamo--><path d="M809.375,717.3125 C809.375,748.3438 809.375,800.0156 809.375,836.7188 " fill="none" id="LAlloc-&gt;Dynamo" style="stroke: #A80036; stroke-width: 1.5625;"/><polygon fill="#A80036" points="809.375,844.7813,815.625,830.7188,809.375,836.9688,803.125,830.7188,809.375,844.7813" style="stroke: #A80036; stroke-width: 1.5625;"/><!--MD5=[7a795144b63d59ff06d6b3b45a96704f]
link LInv to Dynamo--><path d="M1096.5469,717.3125 C1039.4063,749.625 942.7344,804.2813 877.5156,841.1563 " fill="none" id="LInv-&gt;Dynamo" style="stroke: #A80036; stroke-width: 1.5625;"/><polygon fill="#A80036" points="870.5156,845.125,885.8347,843.6614,877.3206,841.2874,879.6946,832.7734,870.5156,845.125" style="stroke: #A80036; stroke-width: 1.5625;"/><!--MD5=[3a0036266cdd533527c6b5a8e2363bcf]
link LUp to Dynamo--><path d="M1418.625,717.3125 C1283.625,753.2969 1044.6563,816.9844 909.6094,852.9688 " fill="none" id="LUp-&gt;Dynamo" style="stroke: #A80036; stroke-width: 1.5625;"/><polygon fill="#A80036" points="901.6719,855.0938,916.8691,857.5149,909.2213,853.0835,913.6527,845.4358,901.6719,855.0938" style="stroke: #A80036; stroke-width: 1.5625;"/><!--MD5=[9d2c8181397fa075c9cf1ebeb02b4843]
link LUp to S3--><path d="M1518.75,717.3125 C1518.75,746.2656 1518.75,793.1719 1518.75,829.1406 " fill="none" id="LUp-&gt;S3" style="stroke: #A80036; stroke-width: 1.5625;"/><polygon fill="#A80036" points="1518.75,837.1094,1525,823.0469,1518.75,829.2969,1512.5,823.0469,1518.75,837.1094" style="stroke: #A80036; stroke-width: 1.5625;"/><text fill="#000000" font-family="sans-serif" font-size="20.3125" lengthAdjust="spacingAndGlyphs" textLength="270.3125" x="1520.3125" y="784.4795">evidencia (prefijo proyecto)</text><!--MD5=[ccc2818be53b037a120403e47f9519c8]
@startuml
skinparam backgroundColor #ffffff
skinparam style strictuml
skinparam componentStyle rectangle
skinparam shadowing false
skinparam dpi 150

actor Usuario
rectangle "Finanzas UI\nReact + Cognito" as UI
rectangle "API Gateway\nfinanzas-sd-api" as APIGW
rectangle "Lambda Projects" as LProjects
rectangle "Lambda Rubros" as LRubros
rectangle "Lambda Allocations" as LAlloc
rectangle "Lambda Invoices" as LInv
rectangle "Lambda Uploads" as LUp
rectangle "Lambda Health" as LHealth
node "DynamoDB" as Dynamo
folder "S3" as S3

Usuario - -> UI : JWT Cognito
UI - -> APIGW : HTTPS requests
APIGW - -> LProjects : /projects, /baseline, /handoff
APIGW - -> LRubros : /catalog/rubros, /projects/{id}/rubros
APIGW - -> LAlloc : /allocation-rules, /plan/forecast, /close-month
APIGW - -> LInv : /invoices, /recon, /alerts
APIGW - -> LUp : /uploads/docs
APIGW - -> LHealth : /health

LProjects - -> Dynamo
LRubros - -> Dynamo
LAlloc - -> Dynamo
LInv - -> Dynamo
LUp - -> Dynamo
LUp - -> S3 : evidencia (prefijo proyecto)

@enduml

PlantUML version 1.2020.02(Sun Mar 01 10:22:07 UTC 2020)
(GPL source distribution)
Java Runtime: OpenJDK Runtime Environment
JVM: OpenJDK 64-Bit Server VM
Java Version: 21.0.2+13-58
Operating System: Linux
Default Encoding: UTF-8
Language: en
Country: null
--></g></svg>